<svg width="22" height="16" viewBox="0 0 22 16" fill="none" xmlns="http://www.w3.org/2000/svg">
<path d="M20.0869 7C20.6392 7 21.0869 7.44772 21.0869 8C21.0869 8.55228 20.6392 9 20.0869 9V7ZM0.999306 8L0.298008 8.71287C0.106922 8.52488 -0.000694275 8.26805 -0.000694275 8C-0.000694275 7.73195 0.106922 7.47512 0.298008 7.28713L0.999306 8ZM7.41351 0.287131C7.80721 -0.100185 8.44036 -0.0950041 8.82767 0.298702C9.21499 0.692409 9.20981 1.32555 8.8161 1.71287L7.41351 0.287131ZM8.8161 14.2871C9.20981 14.6744 9.21499 15.3076 8.82767 15.7013C8.44036 16.095 7.80721 16.1002 7.41351 15.7129L8.8161 14.2871ZM20.0869 9H0.999306V7H20.0869V9ZM8.8161 1.71287L1.7006 8.71287L0.298008 7.28713L7.41351 0.287131L8.8161 1.71287ZM1.7006 7.28713L8.8161 14.2871L7.41351 15.7129L0.298008 8.71287L1.7006 7.28713Z"/>
</svg>
