<svg width="266" height="27" viewBox="0 0 266 27" fill="none" xmlns="http://www.w3.org/2000/svg">
<g clip-path="url(#clip0)">
<path d="M258.288 17.5639L256.851 15.9458L255.238 17.3841L256.675 19.0021L258.288 17.5639ZM254.116 14.6514L255.553 16.2694L257.131 14.8312L255.729 13.2131L254.116 14.6514ZM259.41 20.3325L257.972 18.7145L256.395 20.1887L257.797 21.7708L259.41 20.3325Z" fill="#BDBDBD"/>
<path d="M257.762 22.9935L255.133 20.0451L255.869 19.3978L254.046 17.3124L254.782 16.6651L252.924 14.5797L255.834 11.9189L256.78 12.9256L258.358 11.5233L259.269 12.4942L259.865 11.9548L259.445 11.7391C258.568 11.3076 257.552 11.0559 256.535 11.0559C252.854 11.0559 249.875 14.1122 249.875 17.8157C249.875 21.5552 252.854 24.5756 256.535 24.5756C257.727 24.5756 258.849 24.252 259.83 23.7126C260.146 23.5328 260.426 23.3171 260.707 23.1014L259.374 21.5552L257.762 22.9935Z" fill="#BDBDBD"/>
<path d="M257.026 13.8605L258.113 15.083L259.304 14.0043L258.218 12.7818L257.026 13.8605ZM260.391 16.4134L259.304 15.2268L258.148 16.3055L259.199 17.4921L260.391 16.4134ZM261.408 18.9663L260.321 17.7438L259.164 18.8225L260.216 20.045L261.408 18.9663ZM261.478 14.9751L260.672 15.6943L261.373 16.5213L262.179 15.7662L261.478 14.9751ZM261.688 18.1034L262.389 18.8944L263.196 18.1753L262.459 17.3842L261.688 18.1034ZM259.655 13.3211L260.356 14.1122L261.162 13.3931L260.461 12.5661L259.655 13.3211ZM260.181 21.2675L261.268 22.4901L262.459 21.4114L261.373 20.1889L260.181 21.2675ZM210.823 18.5349H210.788L209.596 13.8605H208.825L207.703 18.5349H207.668L206.687 13.8605H205.74L207.142 20.1169H208.054L209.176 15.7302H209.246L210.403 20.1169H211.314L212.716 13.8605H211.7L210.823 18.5349ZM214.96 15.5505C213.663 15.5505 213.032 16.5213 213.032 17.8517C213.032 19.254 213.628 20.1529 215.065 20.1529C215.696 20.1529 216.187 19.9731 216.572 19.7574V19.0742C216.117 19.3619 215.661 19.5416 215.205 19.5416C214.329 19.5416 213.908 19.0742 213.908 18.0315H216.677V17.7078C216.677 16.2696 216.011 15.5505 214.96 15.5505ZM213.908 17.4562C214.013 16.5932 214.399 16.1617 214.925 16.1617C215.38 16.1617 215.836 16.5213 215.871 17.4562H213.908ZM219.832 15.6224C219.377 15.6224 218.921 15.8021 218.676 15.946V13.429L217.799 13.6448V19.7933C218.325 20.081 219.026 20.2248 219.447 20.2248C220.674 20.2248 221.445 19.4338 221.445 17.7798C221.445 16.3775 220.884 15.6224 219.832 15.6224ZM219.447 19.6135C219.236 19.6135 218.921 19.5776 218.676 19.4697V16.5932C219.026 16.4134 219.272 16.3055 219.622 16.3055C220.183 16.3055 220.604 16.6651 220.604 17.7798C220.569 19.218 220.078 19.6135 219.447 19.6135ZM225.336 18.7865H225.301L223.373 13.8605H222.356V20.1169H223.128V15.6943H223.198L224.95 20.1169H225.476L227.229 15.5864H227.299V20.1169H228.211V13.8605H227.159L225.336 18.7865ZM230.945 15.5505C229.823 15.5505 229.017 16.3055 229.017 17.8517C229.017 19.3619 229.788 20.1529 230.945 20.1529C232.102 20.1529 232.908 19.3619 232.908 17.8517C232.873 16.3415 232.067 15.5505 230.945 15.5505ZM230.945 19.5416C230.349 19.5416 229.893 19.0742 229.893 17.8517C229.893 16.6651 230.384 16.1617 230.945 16.1617C231.541 16.1617 231.997 16.6651 231.997 17.8517C231.997 19.0742 231.541 19.5416 230.945 19.5416ZM235.747 15.5505C234.766 15.5505 233.96 15.9819 233.574 16.1977V20.045H234.45V16.5572C234.731 16.4134 235.152 16.2336 235.502 16.2336C235.923 16.2336 236.273 16.3415 236.273 17.0606V20.045H237.15V16.8449C237.15 15.9819 236.764 15.5505 235.747 15.5505ZM240.059 15.5505C238.762 15.5505 238.131 16.5213 238.131 17.8517C238.131 19.254 238.727 20.1529 240.164 20.1529C240.795 20.1529 241.286 19.9731 241.672 19.7574V19.0742C241.216 19.3619 240.76 19.5416 240.305 19.5416C239.428 19.5416 239.008 19.0742 239.008 18.0315H241.777V17.7078C241.777 16.2696 241.146 15.5505 240.059 15.5505ZM239.008 17.4562C239.113 16.5932 239.498 16.1617 240.024 16.1617C240.48 16.1617 240.936 16.5213 240.971 17.4562H239.008ZM244.371 18.7865H244.336L243.249 15.5505H242.303L243.95 19.9372C243.74 20.5844 243.389 21.0518 242.794 21.0518V21.7709C243.775 21.7709 244.301 21.1237 244.722 19.9372L246.264 15.5505H245.317L244.371 18.7865ZM240.234 5.12305C239.919 5.12305 239.639 5.23092 239.428 5.48261C239.218 5.73431 239.113 6.09387 239.113 6.59727C239.113 7.10066 239.218 7.46022 239.428 7.71192C239.639 7.96362 239.919 8.07149 240.234 8.07149C240.55 8.07149 240.83 7.96362 241.041 7.71192C241.251 7.46022 241.356 7.0647 241.356 6.56131C241.356 6.09387 241.251 5.69835 241.041 5.44666C240.83 5.23092 240.55 5.12305 240.234 5.12305ZM245.142 6.27366C245.247 6.2377 245.353 6.20174 245.423 6.09387C245.493 6.02196 245.528 5.91409 245.528 5.77027C245.528 5.55453 245.458 5.4107 245.317 5.33879C245.177 5.26687 244.932 5.23092 244.581 5.23092H243.88V6.34557H244.581C244.862 6.30961 245.037 6.27366 245.142 6.27366ZM245.282 6.88492C245.142 6.84896 244.967 6.84896 244.687 6.84896H243.915V8.03553H244.757C245.107 8.03553 245.388 7.99957 245.528 7.8917C245.668 7.81979 245.738 7.64001 245.738 7.42427C245.738 7.3164 245.703 7.17257 245.633 7.0647C245.528 6.99279 245.423 6.92088 245.282 6.88492ZM215.17 6.99279C215.065 7.02875 214.96 7.10066 214.925 7.20853C214.855 7.3164 214.82 7.42427 214.82 7.53214C214.82 7.71192 214.89 7.85575 215.03 7.96362C215.17 8.07149 215.345 8.1434 215.591 8.1434C215.836 8.1434 216.046 8.07149 216.257 7.96362C216.467 7.85575 216.607 7.71192 216.677 7.49618C216.748 7.35235 216.783 7.13662 216.783 6.84896V6.59727C216.537 6.70514 216.187 6.77705 215.731 6.84896C215.486 6.88492 215.31 6.92088 215.17 6.99279ZM227.86 5.12305C227.58 5.12305 227.299 5.23092 227.124 5.44666C226.949 5.6624 226.808 5.91409 226.773 6.27366H228.912C228.877 5.95005 228.807 5.69835 228.666 5.51857C228.456 5.23092 228.211 5.12305 227.86 5.12305Z" fill="#BDBDBD"/>
<path d="M203.251 2.75V10.3009H266V2.75H203.251ZM216.993 8.57497C216.923 8.43114 216.888 8.28731 216.853 8.10753C216.607 8.32327 216.397 8.4671 216.152 8.53901C215.906 8.61092 215.696 8.68284 215.45 8.68284C215.03 8.68284 214.714 8.57497 214.469 8.35923C214.223 8.14349 214.118 7.89179 214.118 7.56818C214.118 7.3884 214.153 7.20862 214.259 7.02883C214.329 6.88501 214.469 6.74118 214.609 6.63331C214.749 6.52544 214.89 6.45353 215.065 6.41757C215.205 6.38161 215.38 6.34566 215.626 6.3097C216.152 6.23779 216.537 6.16587 216.783 6.09396V5.91418C216.783 5.62653 216.712 5.44674 216.607 5.33887C216.467 5.19505 216.222 5.12313 215.871 5.12313C215.556 5.12313 215.345 5.19505 215.205 5.30292C215.065 5.41079 214.96 5.59057 214.89 5.87822L214.259 5.80631C214.329 5.51866 214.399 5.30292 214.539 5.12313C214.679 4.94335 214.854 4.83548 215.1 4.72761C215.38 4.61974 215.661 4.54783 215.976 4.54783C216.292 4.54783 216.572 4.58379 216.783 4.6557C216.993 4.72761 217.133 4.83548 217.238 4.94335C217.343 5.05122 217.414 5.231 217.449 5.41079C217.484 5.51866 217.484 5.7344 217.484 6.02205V6.92096C217.484 7.53222 217.484 7.92775 217.519 8.10753C217.554 8.28731 217.589 8.43114 217.694 8.57497H216.993ZM221.515 5.19505H220.288V8.57497H219.657V5.19505H218.43V4.6557H221.55V5.19505H221.515ZM225.301 5.19505H224.074V8.57497H223.443V5.19505H222.216V4.6557H225.336V5.19505H225.301ZM229.613 6.77714H226.738C226.773 7.20862 226.878 7.53222 227.089 7.78392C227.299 8.03562 227.579 8.14349 227.895 8.14349C228.14 8.14349 228.351 8.07157 228.491 7.9637C228.666 7.81988 228.806 7.64009 228.877 7.35244L229.543 7.42436C229.437 7.81988 229.227 8.14349 228.947 8.35923C228.666 8.57497 228.281 8.68284 227.86 8.68284C227.299 8.68284 226.843 8.50305 226.528 8.14349C226.212 7.78392 226.037 7.28053 226.037 6.66927C226.037 6.02205 226.212 5.4827 226.528 5.12313C226.843 4.76357 227.334 4.54783 227.86 4.54783C228.386 4.54783 228.771 4.72761 229.122 5.08718C229.437 5.44674 229.613 5.95014 229.613 6.59735V6.77714ZM233.434 8.28731C233.153 8.53901 232.803 8.68284 232.382 8.68284C231.856 8.68284 231.436 8.50305 231.12 8.14349C230.805 7.78392 230.629 7.28053 230.629 6.63331C230.629 6.20183 230.699 5.84227 230.84 5.51866C230.98 5.19505 231.19 4.97931 231.471 4.79952C231.751 4.6557 232.031 4.54783 232.382 4.54783C232.803 4.54783 233.153 4.6557 233.399 4.87144C233.644 5.08718 233.819 5.37483 233.889 5.80631L233.258 5.91418C233.188 5.66248 233.083 5.44674 232.943 5.30292C232.803 5.15909 232.592 5.08718 232.382 5.08718C232.067 5.08718 231.786 5.19505 231.576 5.44674C231.401 5.69844 231.295 6.09396 231.295 6.59735C231.295 7.1367 231.401 7.49627 231.576 7.74796C231.751 7.99966 232.031 8.10753 232.347 8.10753C232.592 8.10753 232.803 8.03562 232.978 7.85583C233.153 7.71201 233.258 7.46031 233.293 7.10075L233.924 7.17266C233.889 7.67605 233.714 8.03562 233.434 8.28731ZM237.71 5.19505H236.484V8.57497H235.853V5.19505H234.626V4.6557H237.745V5.19505H237.71ZM241.812 7.74796C241.672 8.03562 241.461 8.25136 241.181 8.43114C240.9 8.57497 240.585 8.68284 240.269 8.68284C239.744 8.68284 239.288 8.50305 238.972 8.14349C238.657 7.78392 238.482 7.28053 238.482 6.63331C238.482 5.91418 238.692 5.37483 239.078 5.01526C239.393 4.72761 239.814 4.58379 240.269 4.58379C240.795 4.58379 241.216 4.76357 241.566 5.12313C241.917 5.4827 242.057 5.95014 242.057 6.59735C242.022 7.06479 241.952 7.46031 241.812 7.74796ZM245.983 8.28731C245.738 8.4671 245.423 8.53901 244.967 8.53901H243.249V4.6557H244.757C245.107 4.6557 245.388 4.69166 245.563 4.76357C245.738 4.83548 245.878 4.94335 246.019 5.12313C246.159 5.30292 246.194 5.4827 246.194 5.7344C246.194 5.91418 246.159 6.09396 246.089 6.23779C246.019 6.38161 245.913 6.48948 245.738 6.59735C245.913 6.66927 246.054 6.77714 246.194 6.95692C246.299 7.1367 246.369 7.31648 246.369 7.56818C246.334 7.85583 246.229 8.10753 245.983 8.28731ZM250.12 8.57497C250.05 8.43114 250.015 8.28731 249.98 8.10753C249.734 8.32327 249.524 8.4671 249.279 8.53901C249.033 8.61092 248.823 8.68284 248.578 8.68284C248.157 8.68284 247.841 8.57497 247.596 8.35923C247.351 8.14349 247.245 7.89179 247.245 7.56818C247.245 7.3884 247.28 7.20862 247.386 7.02883C247.456 6.88501 247.596 6.74118 247.736 6.63331C247.876 6.52544 248.017 6.45353 248.192 6.41757C248.332 6.38161 248.507 6.34566 248.753 6.3097C249.279 6.23779 249.664 6.16587 249.91 6.09396V5.91418C249.91 5.62653 249.84 5.44674 249.734 5.33887C249.559 5.19505 249.314 5.12313 248.998 5.12313C248.683 5.12313 248.472 5.19505 248.332 5.30292C248.192 5.41079 248.087 5.59057 248.017 5.87822L247.386 5.80631C247.456 5.51866 247.526 5.30292 247.666 5.12313C247.806 4.94335 247.982 4.83548 248.227 4.72761C248.472 4.61974 248.753 4.58379 249.103 4.58379C249.419 4.58379 249.699 4.61974 249.91 4.69166C250.12 4.76357 250.26 4.87144 250.365 4.97931C250.471 5.08718 250.541 5.26696 250.576 5.44674C250.611 5.55461 250.611 5.77035 250.611 6.058V6.95692C250.611 7.56818 250.611 7.9637 250.646 8.14349C250.681 8.32327 250.716 8.4671 250.821 8.61092H250.12V8.57497ZM255.133 8.57497H254.502V6.84905H252.714V8.57497H252.083V4.6557H252.714V6.27374H254.502V4.6557H255.133V8.57497Z" fill="#BDBDBD"/>
<path d="M248.332 6.99269C248.227 7.02865 248.122 7.10056 248.087 7.20843C248.017 7.3163 247.982 7.42417 247.982 7.53204C247.982 7.71182 248.052 7.85565 248.192 7.96352C248.332 8.07139 248.508 8.1433 248.753 8.1433C248.998 8.1433 249.209 8.07139 249.419 7.96352C249.629 7.85565 249.769 7.71182 249.84 7.49608C249.91 7.35226 249.945 7.13652 249.945 6.84886V6.59717C249.699 6.70504 249.349 6.77695 248.893 6.84886C248.613 6.88482 248.437 6.92078 248.332 6.99269Z" fill="#BDBDBD"/>
</g>
<path d="M123.507 7.03223H120.791C119.97 7.03223 119.339 7.28487 118.96 8.10597L113.781 19.9172H117.444C117.444 19.9172 118.076 18.3382 118.202 17.9592C118.581 17.9592 122.181 17.9592 122.686 17.9592C122.813 18.4013 123.128 19.854 123.128 19.854H126.413L123.507 7.03223ZM119.212 15.3064C119.528 14.5485 120.602 11.7062 120.602 11.7062C120.602 11.7693 120.918 10.9482 121.044 10.5061L121.297 11.643C121.297 11.643 121.992 14.7379 122.118 15.3696H119.212V15.3064Z" fill="#BDBDBD"/>
<path d="M114.033 15.6856C114.033 18.3384 111.633 20.107 107.906 20.107C106.327 20.107 104.812 19.7912 103.99 19.4122L104.496 16.5067L104.938 16.6962C106.075 17.2015 106.833 17.391 108.222 17.391C109.233 17.391 110.307 17.012 110.307 16.1278C110.307 15.5593 109.865 15.1804 108.475 14.5487C107.149 13.9171 105.38 12.9065 105.38 11.0748C105.38 8.54838 107.843 6.84302 111.317 6.84302C112.644 6.84302 113.781 7.09566 114.475 7.41147L113.97 10.1906L113.717 9.93794C113.086 9.68529 112.265 9.43264 111.065 9.43264C109.738 9.49581 109.107 10.0643 109.107 10.5696C109.107 11.138 109.865 11.5801 111.065 12.1486C113.086 13.096 114.033 14.1698 114.033 15.6856Z" fill="#BDBDBD"/>
<path d="M83.2102 7.15914L83.2734 6.90649H88.7053C89.4632 6.90649 90.0317 7.15914 90.2211 7.98024L91.4212 13.6648C90.2211 10.633 87.442 8.16973 83.2102 7.15914Z" fill="#BDBDBD"/>
<path d="M99.0638 7.0324L93.5687 19.8542H89.8422L86.6841 9.11673C88.9579 10.5695 90.8527 12.8433 91.5475 14.4223L91.9265 15.7487L95.3372 6.96924H99.0638V7.0324Z" fill="#BDBDBD"/>
<path d="M100.517 6.96924H103.99L101.78 19.8542H98.3059L100.517 6.96924Z" fill="#BDBDBD"/>
<path d="M16.801 12.5911L13.9587 9.49622L10.8006 12.2753L13.6429 15.4334L16.801 12.5911Z" fill="#BDBDBD"/>
<path d="M8.52682 6.96975L11.3691 10.0647L14.5272 7.28556L11.6849 4.19064L8.52682 6.96975Z" fill="#BDBDBD"/>
<path d="M19.0117 17.9599L16.1694 14.865L13.0113 17.7072L15.8536 20.8021L19.0117 17.9599Z" fill="#BDBDBD"/>
<path d="M15.7272 23.1391L10.548 17.3914L12.0007 16.1282L8.33733 12.0858L9.79005 10.8226L6.12668 6.78027L11.8744 1.66417L13.7061 3.62219L16.8642 0.906235L18.6958 2.80108L19.8959 1.72734C19.6433 1.60101 19.3275 1.41153 19.0748 1.28521C17.2431 0.527266 15.2851 0.0219727 13.2008 0.0219727C5.93719 0.0219727 0 5.89601 0 13.0964C0 20.2969 5.93719 26.1709 13.2639 26.1709C15.6641 26.1709 17.8747 25.5393 19.7696 24.4655C20.4012 24.0866 20.9697 23.7076 21.5381 23.3286L18.8853 20.36L15.7272 23.1391Z" fill="#BDBDBD"/>
<path d="M14.3377 5.45387L16.422 7.79085L18.8222 5.70652L16.6747 3.36954L14.3377 5.45387Z" fill="#BDBDBD"/>
<path d="M20.9697 10.3805L18.8222 8.0435L16.4852 10.191L18.6327 12.4648L20.9697 10.3805Z" fill="#BDBDBD"/>
<path d="M22.9908 15.3071L20.8433 12.9701L18.5064 15.0544L20.6539 17.4546L22.9908 15.3071Z" fill="#BDBDBD"/>
<path d="M23.1172 7.60137L21.5381 8.99092L22.9908 10.57L24.5067 9.18041L23.1172 7.60137Z" fill="#BDBDBD"/>
<path d="M23.5593 13.6017L24.9488 15.1808L26.5279 13.7912L25.0752 12.2122L23.5593 13.6017Z" fill="#BDBDBD"/>
<path d="M19.5169 4.38013L20.9697 5.95917L22.4855 4.56961L21.096 2.99057L19.5169 4.38013Z" fill="#BDBDBD"/>
<path d="M20.5907 19.7916L22.7382 22.1285L25.0752 20.0442L22.9277 17.7072L20.5907 19.7916Z" fill="#BDBDBD"/>
<path d="M67.4089 9.4643C67.2806 8.6898 66.5748 8.17346 65.6123 8.17346C65.2914 8.17346 65.0348 8.17346 64.7139 8.17346C64.1364 8.10892 64.0081 8.30255 64.0081 8.75434C64.0081 11.0133 64.0081 13.2077 64.0081 15.4667C64.0081 16.6284 62.8531 17.8547 61.5056 18.1129C57.2706 19.081 53.0356 19.9846 48.8005 20.9528C48.3514 21.0818 47.8381 21.0818 47.3247 21.0818C47.1322 21.0818 46.8114 20.9528 46.7472 20.7591C46.6831 20.63 46.8756 20.3719 47.0039 20.2428C47.1964 20.1137 47.4531 19.9846 47.7097 19.8555C48.4797 19.5974 49.3139 19.3392 50.0839 19.081C53.2281 18.0484 56.3722 17.0157 59.5164 15.9185C60.9281 15.4667 61.6981 14.4986 61.6981 13.2723C61.7622 9.39976 61.6981 5.46271 61.6981 1.59019C61.6981 0.944775 61.3772 0.428442 60.6714 0.170275C59.8372 -0.152434 59.0672 0.105729 58.3614 0.428438C53.8697 2.55832 49.4422 4.68821 44.9505 6.81809C43.6672 7.46351 42.8972 8.36709 42.8972 9.65793C42.8972 13.3368 42.8972 17.0157 42.8972 20.6946C42.8972 20.8882 42.8972 21.0818 42.9614 21.2109C43.4105 22.4372 44.5656 23.2117 46.1056 23.2117C49.2497 23.2117 52.3939 23.2117 55.5381 23.2117C58.6822 23.2117 61.7622 23.2117 64.9064 23.2117C65.6123 23.2117 66.1897 23.0826 66.7031 22.6308C67.3447 22.1145 67.3447 21.4045 67.3447 20.7591C67.3447 17.1448 67.3447 13.595 67.3447 9.98063C67.4731 9.91609 67.4731 9.65792 67.4089 9.4643ZM54.3189 8.30255C54.6397 7.46351 55.3456 6.94717 56.3722 6.81809C57.0781 6.75355 57.6556 7.1408 57.7839 7.78622C57.9122 8.75434 56.7572 9.9161 55.5381 9.9161C54.5756 9.9161 53.9981 9.20614 54.3189 8.30255Z" fill="#BDBDBD"/>
<path fill-rule="evenodd" clip-rule="evenodd" d="M160.957 7.15924C161.17 6.70137 161.41 6.25852 161.675 5.83284H161.646C161.54 6.04376 161.435 6.23267 161.334 6.41335C161.193 6.66552 161.061 6.90166 160.951 7.15924H160.957ZM163.873 3.19967C161.73 1.20482 158.843 0.0219727 155.645 0.0219727C148.95 0.211458 143.392 5.58019 143.392 12.3385C143.392 19.0968 148.887 24.655 155.708 24.655C158.899 24.655 161.719 23.4153 163.92 21.4886C166.106 23.4535 168.988 24.655 172.13 24.655C178.952 24.655 184.447 19.0968 184.447 12.3385C184.447 5.58019 178.952 0.0219727 172.067 0.0219727C168.919 0.0219727 166.045 1.22804 163.873 3.19967ZM171.057 15.4965L171.309 14.0438C171.309 14.0438 170.678 14.3596 170.172 14.3596C169.288 14.3596 168.846 13.6648 168.846 12.8437C168.846 11.2646 169.604 10.4435 170.551 10.4435C171.183 10.4435 171.751 10.8225 171.751 10.8225L171.941 9.43296C171.941 9.43296 171.183 9.11715 170.425 9.11715C168.909 9.11715 167.457 10.4435 167.457 12.9068C167.457 14.549 168.214 15.6228 169.793 15.6228C170.362 15.686 171.057 15.4965 171.057 15.4965ZM160.256 14.3596L160.067 15.4965C159.94 15.5596 159.624 15.686 159.245 15.686C158.614 15.686 158.172 15.307 158.172 14.549C158.172 14.0438 158.93 9.74876 158.93 9.74876H160.256L160.13 10.5067H160.761L160.572 11.7699H159.877L159.498 14.0438C159.435 14.1701 159.498 14.4227 159.94 14.4227C160.014 14.4227 160.088 14.4011 160.15 14.3831C160.193 14.3704 160.23 14.3596 160.256 14.3596ZM162.783 15.686C161.772 15.686 160.509 15.2438 160.509 13.4121C160.509 11.7699 161.519 10.3172 162.783 10.3804C164.235 10.3804 164.677 11.4541 164.677 12.2752C164.677 12.6542 164.488 13.4753 164.488 13.4753H161.835C161.835 13.4753 161.582 14.549 163.035 14.549C163.73 14.549 164.425 14.2332 164.425 14.2332L164.172 15.4965C164.172 15.4965 163.73 15.686 162.783 15.686ZM163.353 12.3731C163.366 12.2136 163.422 11.5173 162.783 11.5173C162.223 11.5173 162.032 12.05 161.946 12.2903C161.925 12.3483 161.911 12.3893 161.898 12.4016H163.351L163.351 12.3944L163.353 12.3731ZM151.35 10.5699C151.35 10.5699 152.045 10.3172 152.929 10.3172C153.371 10.3172 154.635 10.3804 154.635 11.9594L154.129 15.5596H153.056L153.119 15.0543C153.105 15.0543 153.075 15.0796 153.028 15.1195L153.028 15.1195C152.849 15.2688 152.427 15.6228 151.729 15.6228C151.224 15.6228 150.466 15.3702 150.466 14.1701C150.466 12.6542 151.666 12.2121 152.803 12.2121H153.371C153.371 12.2121 153.435 12.1489 153.435 11.8963C153.435 11.5173 153.056 11.4541 152.614 11.4541C151.729 11.4541 151.161 11.7068 151.161 11.7068L151.35 10.5699ZM152.298 14.4859C153.056 14.4859 153.182 13.4121 153.182 13.2227H152.992C151.982 13.2227 151.792 13.6648 151.792 13.9806C151.792 14.1701 151.919 14.4859 152.298 14.4859ZM155.898 15.6228L155.93 15.6229C156.31 15.6249 157.856 15.6331 157.856 13.9174C157.856 12.9038 157.254 12.6362 156.794 12.4312C156.508 12.3041 156.277 12.2012 156.277 11.9594C156.277 11.6436 156.53 11.5173 156.972 11.5173C157.161 11.5173 157.856 11.5805 157.856 11.5805L158.045 10.3804C158.045 10.3804 157.603 10.2541 156.782 10.2541C155.835 10.2541 154.824 10.633 154.824 11.9594C154.824 12.8996 155.456 13.2081 155.936 13.4424C156.229 13.5859 156.466 13.7015 156.466 13.9174C156.466 14.2964 156.024 14.3596 155.708 14.3596C155.14 14.3596 154.508 14.1701 154.508 14.1701L154.319 15.3702C154.445 15.4965 154.824 15.6228 155.898 15.6228ZM181.668 11.0752L181.921 9.30664L183.31 9.43296L182.363 15.686H181.036L181.099 15.2438C181.099 15.2438 180.594 15.7491 179.836 15.7491C178.699 15.7491 178.194 14.6754 178.194 13.6016C178.194 11.8963 179.205 10.4435 180.405 10.4435C181.163 10.4435 181.668 11.0752 181.668 11.0752ZM180.215 14.3596C180.973 14.3596 181.289 13.4121 181.289 12.7174C181.289 11.9594 181.036 11.6436 180.594 11.5805C179.963 11.5805 179.52 12.2121 179.52 13.2858C179.52 13.9806 179.773 14.3596 180.215 14.3596ZM145.792 15.5596L146.55 10.8857L146.676 15.5596H147.561L149.266 10.8857L148.571 15.5596H149.961L151.034 9.30664H148.887L147.561 13.1595L147.497 9.30664H145.603L144.529 15.5596H145.792ZM166.18 14.4743C166.127 14.8183 166.07 15.1832 166.004 15.5596H164.551L165.372 10.5067H166.635L166.509 11.2015C166.509 11.2015 167.014 10.4435 167.583 10.4435H167.835C167.819 10.4846 167.802 10.5268 167.783 10.5709L167.783 10.5709C167.661 10.8655 167.503 11.2452 167.393 11.9594C166.612 11.699 166.432 12.8561 166.18 14.4743ZM174.088 10.3172C173.204 10.3172 172.509 10.5699 172.509 10.5699L172.32 11.7068C172.32 11.7068 172.888 11.4541 173.773 11.4541C174.215 11.4541 174.594 11.5173 174.594 11.8963C174.594 12.1489 174.531 12.2121 174.531 12.2121H173.962C172.825 12.2121 171.625 12.6542 171.625 14.1701C171.625 15.3702 172.383 15.6228 172.888 15.6228C173.586 15.6228 174.009 15.2688 174.187 15.1195C174.234 15.0796 174.265 15.0543 174.278 15.0543L174.215 15.5596H175.415L175.92 11.9594C175.92 10.3804 174.531 10.3172 174.088 10.3172ZM174.404 13.2227C174.404 13.4121 174.278 14.4859 173.52 14.4859C173.141 14.4859 173.015 14.1701 173.015 13.9806C173.015 13.6648 173.204 13.2227 174.215 13.2227H174.404ZM177.107 14.4743L177.107 14.4745L177.107 14.4761C177.054 14.8196 176.997 15.1838 176.931 15.5596H175.478L176.299 10.5067H177.562L177.436 11.2015C177.436 11.2015 177.941 10.4435 178.51 10.4435H178.762C178.746 10.4847 178.728 10.5269 178.71 10.571C178.588 10.8656 178.43 11.2452 178.32 11.9594C177.539 11.699 177.359 12.8561 177.107 14.4743Z" fill="#BDBDBD"/>
<defs>
<clipPath id="clip0">
<rect width="62.7487" height="21.8256" fill="white" transform="translate(203.251 2.75)"/>
</clipPath>
</defs>
</svg>
