<svg width="55" height="65" viewBox="0 0 55 65" fill="none" xmlns="http://www.w3.org/2000/svg">
<path d="M54.0487 32.9077C53.3754 29.9894 50.9826 27.8368 48.1027 27.5164C41.2845 26.7565 34.38 26.7529 27.5093 26.7565C20.6358 26.7529 13.7328 26.7565 6.91236 27.5164C4.03389 27.8375 1.64258 29.9902 0.97003 32.9077C0.0114966 37.0632 0 41.5993 0 45.8781C0 50.1568 8.56568e-08 54.6922 0.958534 58.8477C1.63109 61.7652 4.02239 63.9179 6.90231 64.239C13.7213 64.9996 20.6243 65.0025 27.4971 64.9996C34.3707 65.0032 41.2723 64.9996 48.0934 64.239C50.9719 63.9179 53.3646 61.7652 54.0372 58.8477C54.995 54.6922 55 50.1568 55 45.8781C54.9993 41.5986 55.0065 37.0632 54.0487 32.9077ZM15.6879 36.1284H11.7072V57.2305H8.00958V36.1284H4.10143V32.6718H15.6879V36.1284ZM25.7309 57.2313H22.4048V55.2349C21.0834 56.746 19.8289 57.4829 18.6066 57.4829C17.5353 57.4829 16.7981 57.0499 16.4654 56.123C16.2843 55.5696 16.1722 54.6937 16.1722 53.4019V38.9319H19.4955V52.4048C19.4955 53.1819 19.4955 53.5855 19.5256 53.6944C19.6054 54.2091 19.8576 54.47 20.3031 54.47C20.9699 54.47 21.6669 53.9575 22.4041 52.9174V38.9319H25.7302L25.7309 57.2313ZM38.3579 51.7389C38.3579 53.4313 38.2436 54.6507 38.0216 55.4263C37.5775 56.7875 36.6887 57.4829 35.3666 57.4829C34.1839 57.4829 33.0428 56.8277 31.9312 55.4585V57.232H28.608V32.6718H31.9312V40.6925C33.0047 39.3742 34.1443 38.7076 35.3666 38.7076C36.6887 38.7076 37.5783 39.4022 38.0216 40.7721C38.2451 41.5082 38.3579 42.7183 38.3579 44.4508V51.7389ZM44.2542 48.6859V51.9296C44.2542 53.6234 44.8097 54.4693 45.9521 54.4693C46.7705 54.4693 47.2469 54.0256 47.4366 53.1396C47.4675 52.9597 47.5114 52.2228 47.5114 50.893H50.9022V51.3769C50.9022 52.4457 50.8612 53.1819 50.831 53.5131C50.7197 54.2471 50.4581 54.913 50.055 55.4994C49.1345 56.8284 47.7708 57.4836 46.0348 57.4836C44.2959 57.4836 42.9723 56.8592 42.0117 55.6098C41.3068 54.6937 40.9446 53.2514 40.9446 51.3066V44.8974C40.9446 42.9412 41.2658 41.5104 41.9721 40.5857C42.9321 39.3334 44.2549 38.7097 45.9528 38.7097C47.6206 38.7097 48.9427 39.3334 49.8739 40.5857C50.5702 41.5104 50.9029 42.9412 50.9029 44.8974V48.6859H44.2542Z" fill="white"/>
<path d="M45.9227 41.6932C44.8118 41.6932 44.2549 42.5398 44.2549 44.2315V45.9247H47.5782V44.2315C47.5775 42.5398 47.022 41.6932 45.9227 41.6932Z" fill="white"/>
<path d="M33.5882 41.6932C33.0407 41.6932 32.486 41.9512 31.9305 42.4996V53.6528C32.4852 54.2077 33.0407 54.47 33.5882 54.47C34.5467 54.47 35.0339 53.6528 35.0339 52.0005V44.1899C35.0339 42.5398 34.5467 41.6932 33.5882 41.6932Z" fill="white"/>
<path d="M35.4449 25.0698C36.67 25.0698 37.9447 24.3272 39.2819 22.7989V24.8161H42.6411V6.32247H39.2819V20.457C38.5375 21.5064 37.8319 22.0254 37.1601 22.0254C36.7103 22.0254 36.4458 21.7602 36.3725 21.2405C36.3316 21.1308 36.3316 20.7229 36.3316 19.938V6.32247H32.9832V20.9459C32.9832 22.2519 33.0953 23.1358 33.2807 23.6956C33.6184 24.6325 34.3635 25.0698 35.4449 25.0698Z" fill="white"/>
<path d="M12.06 14.7653V24.8161H15.7849V14.7653L20.2657 0H16.4991L13.9577 9.74535L11.3134 0H7.39379C8.17915 2.30032 8.99613 4.61211 9.7815 6.91458C10.9764 10.3754 11.7223 12.9847 12.06 14.7653Z" fill="white"/>
<path d="M25.2582 25.0698C26.941 25.0698 28.2487 24.4383 29.1764 23.1767C29.8812 22.2512 30.219 20.7932 30.219 18.8276V12.3518C30.219 10.3747 29.882 8.92959 29.1764 7.99556C28.2487 6.73035 26.9417 6.09882 25.2582 6.09882C23.584 6.09882 22.2769 6.73035 21.3471 7.99556C20.6336 8.92959 20.2959 10.3747 20.2959 12.3518V18.8276C20.2959 20.7932 20.6336 22.2512 21.3471 23.1767C22.2762 24.4383 23.584 25.0698 25.2582 25.0698ZM23.6551 11.6801C23.6551 9.969 24.1753 9.11597 25.2582 9.11597C26.341 9.11597 26.8598 9.96829 26.8598 11.6801V19.4592C26.8598 21.1702 26.341 22.0261 25.2582 22.0261C24.1753 22.0261 23.6551 21.1702 23.6551 19.4592V11.6801Z" fill="white"/>
</svg>
